<?xml version="1.0" standalone="no"?>
<!DOCTYPE svg PUBLIC "-//W3C//DTD SVG 20010904//EN"
 "http://www.w3.org/TR/2001/REC-SVG-20010904/DTD/svg10.dtd">
<svg version="1.0" xmlns="http://www.w3.org/2000/svg"
 width="588.000000pt" height="547.000000pt" viewBox="0 0 588.000000 547.000000"
 preserveAspectRatio="xMidYMid meet">
<metadata>
Created by potrace 1.16, written by Peter Selinger 2001-2019
</metadata>
<g transform="translate(0.000000,547.000000) scale(0.100000,-0.100000)"
fill="#000000" stroke="none">
<path d="M2755 5241 c-50 -22 -91 -70 -104 -119 -5 -22 -11 -621 -13 -1469 -3
-788 -7 -1436 -11 -1439 -3 -4 -32 3 -64 14 -444 161 -1074 72 -1566 -221
-318 -189 -607 -517 -702 -797 -107 -314 -3 -630 271 -826 95 -68 259 -142
386 -174 712 -178 1558 139 1854 694 83 156 131 317 160 541 9 72 17 293 24
645 5 294 16 774 24 1065 21 738 40 1894 32 1947 -18 121 -171 194 -291 139z
m-201 -3246 c39 -8 71 -17 73 -18 8 -8 -19 -535 -32 -619 -28 -183 -97 -318
-234 -461 -314 -326 -886 -472 -1337 -341 -393 114 -520 342 -363 655 79 159
297 384 496 512 237 154 475 232 888 291 73 10 442 -3 509 -19z"/>
<path d="M4430 2929 c-423 -45 -845 -246 -1081 -515 -130 -147 -116 -124 -163
-278 -34 -112 -39 -147 -81 -565 -27 -278 -41 -459 -37 -481 6 -28 17 -40 54
-60 25 -14 55 -33 65 -43 11 -9 26 -17 34 -17 8 0 47 -19 88 -41 316 -172 795
-183 1261 -30 394 130 691 333 935 638 252 317 309 635 162 918 -157 301 -565
489 -1050 484 -62 -1 -146 -5 -187 -10z m378 -350 c159 -19 332 -82 434 -157
112 -83 161 -172 162 -292 0 -160 -86 -321 -278 -518 -270 -278 -577 -428
-1041 -509 -144 -25 -518 -25 -629 0 -44 9 -81 19 -83 20 -8 8 19 535 32 619
28 183 97 318 234 461 133 138 313 246 526 315 222 73 402 90 643 61z"/>
</g>
</svg>
